Coordinates
version=1
nRows=16
nColumns=40
inDegrees=yes

Units are S.I. units (second, meters, Newtons, ...)
If the header above contains a line with 'inDegrees', this indicates whether rotational values are in degrees (yes) or radians (no).

endheader
time	pelvis_tilt	pelvis_list	pelvis_rotation	pelvis_tx	pelvis_ty	pelvis_tz	hip_flexion_r	hip_adduction_r	hip_rotation_r	knee_angle_r	knee_angle_r_beta	ankle_angle_r	subtalar_angle_r	mtp_angle_r	hip_flexion_l	hip_adduction_l	hip_rotation_l	knee_angle_l	knee_angle_l_beta	ankle_angle_l	subtalar_angle_l	mtp_angle_l	lumbar_extension	lumbar_bending	lumbar_rotation	arm_flex_r	arm_add_r	arm_rot_r	elbow_flex_r	pro_sup_r	wrist_flex_r	wrist_dev_r	arm_flex_l	arm_add_l	arm_rot_l	elbow_flex_l	pro_sup_l	wrist_flex_l	wrist_dev_l
      2.31500000	    -18.91833911	     -3.45483424	     -0.25116532	      0.15867672	      0.88721083	     -1.18520284	     27.60764554	    -20.21778330	    -38.08629943	     16.12065232	      0.28135846	     -3.65094436	      8.68862609	      0.00000000	     32.36532139	    -27.43562408	    -24.95247825	     17.85100182	      0.31155876	     -2.83167413	     15.10999374	      0.00000000	      0.00000000	      0.00000000	      0.00000000	     43.09694448	    -15.73372732	     43.09694448	     76.36415617	     44.55704945	      0.00000000	      0.00000000	     43.09694448	    -15.73372732	     43.09694448	     76.36415617	     44.55704945	      0.00000000	      0.00000000
      2.32000000	    -19.56447703	     -3.44963213	     -0.15335570	      0.15760722	      0.88538284	     -1.18562758	     28.65698705	    -20.54014105	    -37.97624960	     16.88209182	      0.29464809	     -3.49342783	      8.24735215	      0.00000000	     33.52011210	    -27.43531600	    -24.47042981	     18.42599149	      0.32159422	     -2.69250860	     14.73254238	      0.00000000	      0.00000000	      0.00000000	      0.00000000	     43.14299999	    -15.70906562	     43.14299999	     76.29635964	     44.59422744	      0.00000000	      0.00000000	     43.14299999	    -15.70906562	     43.14299999	     76.29635964	     44.59422744	      0.00000000	      0.00000000
      2.32500000	    -20.05040099	     -3.43985695	     -0.05709502	      0.15655297	      0.88381771	     -1.18604931	     29.51695386	    -20.86035736	    -37.88295294	     17.61660739	      0.30746780	     -3.29381330	      7.97612401	      0.00000000	     34.48962492	    -27.44450629	    -24.06675802	     18.99230021	      0.33147817	     -2.54288538	     14.52327376	      0.00000000	      0.00000000	      0.00000000	      0.00000000	     43.18374417	    -15.68716882	     43.18374417	     76.23591344	     44.62717937	      0.00000000	      0.00000000	     43.18374417	    -15.68716882	     43.18374417	     76.23591344	     44.62717937	      0.00000000	      0.00000000
      2.33000000	    -20.10640648	     -3.47226040	     -0.00786504	      0.15587821	      0.88292697	     -1.18631166	     29.86554869	    -21.10407755	    -37.86956881	     18.30648224	      0.31950839	     -2.90517603	      7.99801934	      0.00000000	     34.96095747	    -27.61441330	    -24.00306854	     19.65628147	      0.34306683	     -2.14394898	     14.57930531	      0.00000000	      0.00000000	      0.00000000	      0.00000000	     43.21962384	    -15.66749335	     43.21962384	     76.17967524	     44.65960409	      0.00000000	      0.00000000	     43.21962384	    -15.66749335	     43.21962384	     76.17967524	     44.65960409	      0.00000000	      0.00000000
      2.33500000	    -20.49057113	     -3.42130871	      0.06214115	      0.15484697	      0.88137445	     -1.18662523	     30.66953174	    -21.48072342	    -37.74582587	     19.12646940	      0.33381987	     -2.62560847	      7.74215281	      0.00000000	     35.80624349	    -27.62561080	    -23.72208093	     20.26765972	      0.35373739	     -1.94639293	     14.38501333	      0.00000000	      0.00000000	      0.00000000	      0.00000000	     43.26231295	    -15.64449252	     43.26231295	     76.11601880	     44.69390401	      0.00000000	      0.00000000	     43.26231295	    -15.64449252	     43.26231295	     76.11601880	     44.69390401	      0.00000000	      0.00000000
      2.34000000	    -20.90189192	     -3.41256373	      0.14746742	      0.15372972	      0.87967362	     -1.18695715	     31.50128214	    -21.82559894	    -37.62440411	     19.96167250	      0.34839691	     -2.33248223	      7.44019876	      0.00000000	     36.73276834	    -27.66939178	    -23.35245356	     20.91894854	      0.36510453	     -1.69384102	     14.19187347	      0.00000000	      0.00000000	      0.00000000	      0.00000000	     43.30428336	    -15.62211159	     43.30428336	     76.05537740	     44.72479742	      0.00000000	      0.00000000	     43.30428336	    -15.62211159	     43.30428336	     76.05537740	     44.72479742	      0.00000000	      0.00000000
      2.34500000	    -21.67568276	     -3.27974985	      0.06117427	      0.15226556	      0.87735424	     -1.18685212	     32.90965381	    -22.16337585	    -37.05829261	     20.81938831	      0.36336687	     -2.45144716	      6.54366970	      0.00000000	     37.97988574	    -27.67942272	    -23.14217847	     21.54483323	      0.37602828	     -1.89924596	     13.60708354	      0.00000000	      0.00000000	      0.00000000	      0.00000000	     43.34865478	    -15.59877149	     43.34865478	     75.99376445	     44.75433694	      0.00000000	      0.00000000	     43.34865478	    -15.59877149	     43.34865478	     75.99376445	     44.75433694	      0.00000000	      0.00000000
      2.35000000	    -21.56802833	     -3.51378665	      0.33015773	      0.15158919	      0.87639441	     -1.18764161	     32.91623940	    -22.38809150	    -37.46765084	     21.51824018	      0.37556414	     -1.80573224	      6.97694028	      0.00000000	     38.52628761	    -27.89143665	    -22.60192930	     22.35367725	      0.39014527	     -1.23498635	     13.77559193	      0.00000000	      0.00000000	      0.00000000	      0.00000000	     43.38354719	    -15.58024388	     43.38354719	     75.94444683	     44.77761892	      0.00000000	      0.00000000	     43.38354719	    -15.58024388	     43.38354719	     75.94444683	     44.77761892	      0.00000000	      0.00000000
      2.35500000	    -21.95032117	     -3.57686442	      0.42660199	      0.15043190	      0.87448173	     -1.18795376	     33.69720722	    -22.68268304	    -37.39242413	     22.34711361	      0.39003071	     -1.48944836	      6.79457758	      0.00000000	     39.53267861	    -28.02088122	    -22.16954213	     23.14041985	      0.40387652	     -0.94055961	     13.56680692	      0.00000000	      0.00000000	      0.00000000	      0.00000000	     43.42318153	    -15.55958526	     43.42318153	     75.89114236	     44.80130074	      0.00000000	      0.00000000	     43.42318153	    -15.55958526	     43.42318153	     75.89114236	     44.80130074	      0.00000000	      0.00000000
      2.36000000	    -22.33493953	     -3.57991968	      0.53214715	      0.14923145	      0.87251330	     -1.18826329	     34.53795127	    -23.07012377	    -37.28755717	     23.27487312	      0.40622317	     -1.19002815	      6.50927863	      0.00000000	     40.50358940	    -28.05761335	    -21.72931487	     23.87873154	      0.41676249	     -0.69664158	     13.29306590	      0.00000000	      0.00000000	      0.00000000	      0.00000000	     43.46067855	    -15.54036375	     43.46067855	     75.84315773	     44.82092690	      0.00000000	      0.00000000	     43.46067855	    -15.54036375	     43.46067855	     75.84315773	     44.82092690	      0.00000000	      0.00000000
      2.36500000	    -22.67381218	     -3.59050463	      0.62525987	      0.14805671	      0.87056073	     -1.18854324	     35.30974783	    -23.43095668	    -37.17195682	     24.15451071	      0.42157574	     -0.84193798	      6.31028817	      0.00000000	     41.43745456	    -28.13457693	    -21.35645322	     24.65913473	      0.43038309	     -0.43162837	     13.11586879	      0.00000000	      0.00000000	      0.00000000	      0.00000000	     43.49672301	    -15.52194343	     43.49672301	     75.79755767	     44.83903731	      0.00000000	      0.00000000	     43.49672301	    -15.52194343	     43.49672301	     75.79755767	     44.83903731	      0.00000000	      0.00000000
      2.37000000	    -22.98978766	     -3.62089173	      0.72696579	      0.14687620	      0.86860165	     -1.18879860	     36.05195147	    -23.77576171	    -37.06918277	     25.02881971	      0.43683531	     -0.52380973	      6.09875693	      0.00000000	     42.35741528	    -28.21941561	    -20.94828919	     25.42680602	      0.44378148	     -0.16323179	     12.92852442	      0.00000000	      0.00000000	      0.00000000	      0.00000000	     43.53096129	    -15.50464313	     43.53096129	     75.75572974	     44.85463610	      0.00000000	      0.00000000	     43.53096129	    -15.50464313	     43.53096129	     75.75572974	     44.85463610	      0.00000000	      0.00000000
      2.37500000	    -23.30135023	     -3.61406941	      0.81477700	      0.14565717	      0.86662398	     -1.18899137	     36.82549968	    -24.14703384	    -36.91166835	     25.92428488	      0.45246413	     -0.24529507	      5.81149966	      0.00000000	     43.23048020	    -28.26707155	    -20.57564318	     26.13794236	      0.45619315	      0.05681908	     12.73441268	      0.00000000	      0.00000000	      0.00000000	      0.00000000	     43.56199011	    -15.48921759	     43.56199011	     75.71965334	     44.86698709	      0.00000000	      0.00000000	     43.56199011	    -15.48921759	     43.56199011	     75.71965334	     44.86698709	      0.00000000	      0.00000000
      2.38000000	    -23.58685514	     -3.74808773	      0.94432573	      0.14447857	      0.86458606	     -1.18936372	     37.47031959	    -24.41857791	    -36.92295744	     26.75442419	      0.46695279	      0.09801132	      5.71761429	      0.00000000	     44.22151649	    -28.43250343	    -20.06740096	     27.00418489	      0.47131194	      0.37792672	     12.59064254	      0.00000000	      0.00000000	      0.00000000	      0.00000000	     43.60203970	    -15.46897185	     43.60203970	     75.67078540	     44.88502438	      0.00000000	      0.00000000	     43.60203970	    -15.46897185	     43.60203970	     75.67078540	     44.88502438	      0.00000000	      0.00000000
      2.38500000	    -23.90106588	     -3.71687924	      1.02939830	      0.14327337	      0.86246599	     -1.18952279	     38.25956460	    -24.82950611	    -36.75613444	     27.67485761	      0.48301739	      0.44231548	      5.52771698	      0.00000000	     45.09991119	    -28.47617476	    -19.75033442	     27.75687645	      0.48444888	      0.64871167	     12.46938814	      0.00000000	      0.00000000	      0.00000000	      0.00000000	     43.63343221	    -15.45361204	     43.63343221	     75.63601729	     44.89594757	      0.00000000	      0.00000000	     43.63343221	    -15.45361204	     43.63343221	     75.63601729	     44.89594757	      0.00000000	      0.00000000
      2.39000000	    -24.16044132	     -3.70661236	      1.12853152	      0.14208970	      0.86045727	     -1.18970853	     38.96339713	    -25.22313282	    -36.64762913	     28.55976200	      0.49846188	      0.76426644	      5.40444264	      0.00000000	     45.91988493	    -28.52200914	    -19.42118381	     28.48692483	      0.49719063	      0.87381165	     12.34069537	      0.00000000	      0.00000000	      0.00000000	      0.00000000	     43.66948575	    -15.43590669	     43.66948575	     75.59568979	     44.90879155	      0.00000000	      0.00000000	     43.66948575	    -15.43590669	     43.66948575	     75.59568979	     44.90879155	      0.00000000	      0.00000000
